Coordinates
version=1
nRows=18
nColumns=34
inDegrees=no

Units are S.I. units (second, meters, Newtons, ...)
If the header above contains a line with 'inDegrees', this indicates whether rotational values are in degrees (yes) or radians (no).

endheader
time	pelvis_tilt	pelvis_list	pelvis_rotation	pelvis_tx	pelvis_ty	pelvis_tz	hip_flexion_r	hip_adduction_r	hip_rotation_r	knee_angle_r	ankle_angle_r	subtalar_angle_r	mtp_angle_r	hip_flexion_l	hip_adduction_l	hip_rotation_l	knee_angle_l	ankle_angle_l	subtalar_angle_l	mtp_angle_l	lumbar_extension	lumbar_bending	lumbar_rotation	arm_flex_r	arm_add_r	arm_rot_r	elbow_flex_r	pro_sup_r	arm_flex_l	arm_add_l	arm_rot_l	elbow_flex_l	pro_sup_l
0.01	0.294169	0.0567123	0.12249	-0.319782	1.00607	-0.181974	0.124504	-0.0451554	-0.313001	-0.0245004	0.124756	0.257229	-0.0136873	-0.524322	0.0133099	-0.321998	0.139737	0.401125	0.417295	-0.0367096	-0.499622	0.0307523	-0.075671	-0.30378	-0.0744279	-0.411889	0.459796	1.9948	0.261806	-0.270848	-0.102696	0.944423	1.82981
0.02	0.294809	0.0482493	0.125723	-0.30205	1.01481	-0.181126	0.115389	-0.0285089	-0.284856	-0.0274696	0.117489	0.245624	-0.0137589	-0.536185	-0.00436831	-0.335409	0.155897	0.41009	0.433251	-0.0366709	-0.499739	0.0392942	-0.0796788	-0.313272	-0.0709116	-0.412227	0.45654	1.99329	0.265117	-0.279703	-0.105221	0.969784	1.83501
0.03	0.294957	0.0399197	0.1286	-0.284304	1.02265	-0.180284	0.106122	-0.0123036	-0.258482	-0.0297965	0.105466	0.230169	-0.0138306	-0.545195	-0.0218333	-0.34587	0.175478	0.41359	0.442877	-0.0366321	-0.499087	0.0474756	-0.0828662	-0.321494	-0.0676666	-0.412615	0.453225	1.99255	0.266385	-0.287363	-0.108243	0.994271	1.83957
0.04	0.294604	0.0317356	0.131122	-0.266546	1.02962	-0.179446	0.0967032	0.00343611	-0.233852	-0.0315307	0.0887601	0.210912	-0.0139022	-0.551313	-0.0390638	-0.353369	0.198513	0.411569	0.446135	-0.0365934	-0.497661	0.0552773	-0.0852371	-0.328448	-0.0646967	-0.413034	0.449859	1.99257	0.265613	-0.293821	-0.111759	1.01787	1.84348
0.05	0.293732	0.0237354	0.133286	-0.248788	1.03576	-0.178609	0.0871418	0.0186412	-0.21095	-0.0327683	0.0676513	0.188074	-0.0139739	-0.554436	-0.0560145	-0.357897	0.225105	0.403857	0.44295	-0.0365546	-0.495454	0.0626572	-0.0867968	-0.334143	-0.0620126	-0.41343	0.446483	1.99337	0.262822	-0.299062	-0.115747	1.04055	1.84673
0.06	0.292336	0.0159685	0.1351	-0.231049	1.04114	-0.17777	0.0774714	0.0331989	-0.189872	-0.0335899	0.0427542	0.162224	-0.0140456	-0.554401	-0.0726465	-0.35949	0.255432	0.390154	0.433264	-0.0365159	-0.492487	0.0695709	-0.0875451	-0.338608	-0.0596335	-0.413713	0.443186	1.99489	0.258068	-0.303061	-0.120152	1.06223	1.84927
0.07	0.290451	0.00845676	0.136589	-0.213358	1.0458	-0.176933	0.0677579	0.0469871	-0.170929	-0.0339733	0.0150968	0.134403	-0.0141172	-0.55102	-0.0889842	-0.358279	0.289736	0.370062	0.417131	-0.0364771	-0.488829	0.0760149	-0.0874651	-0.341895	-0.0575869	-0.413771	0.440124	1.9971	0.25146	-0.305794	-0.124866	1.08283	1.85106
0.08	0.28817	0.00115068	0.13781	-0.19576	1.04981	-0.176101	0.0581035	0.0599289	-0.154701	-0.0337271	-0.0138924	0.106147	-0.0141889	-0.544117	-0.105171	-0.354521	0.32828	0.343169	0.394794	-0.0364383	-0.484623	0.0820712	-0.0865112	-0.344078	-0.0559078	-0.413493	0.437519	1.99988	0.243165	-0.307247	-0.12973	1.10223	1.85205
0.09	0.285626	-0.00608564	0.138837	-0.178307	1.05323	-0.175278	0.0486757	0.0720244	-0.141985	-0.0324661	-0.042487	0.0793639	-0.0142606	-0.533542	-0.121468	-0.34859	0.371285	0.309181	0.366724	-0.0363995	-0.480066	0.0879131	-0.0846078	-0.345234	-0.0546405	-0.412781	0.435639	2.00312	0.23341	-0.307426	-0.134539	1.1203	1.85215
0.1	0.282952	-0.0134646	0.139751	-0.161058	1.05615	-0.174467	0.0397159	0.0833649	-0.133642	-0.0296592	-0.0688424	0.0560825	-0.0143323	-0.51917	-0.138212	-0.340916	0.418856	0.268092	0.333604	-0.0363607	-0.475376	0.0937854	-0.0816592	-0.345424	-0.0538409	-0.411563	0.434753	2.00667	0.22246	-0.30636	-0.139076	1.13694	1.85133
0.11	0.280254	-0.0212419	0.140626	-0.144076	1.05861	-0.173668	0.0315151	0.0941269	-0.130402	-0.0247412	-0.0912137	0.038147	-0.014404	-0.500911	-0.155745	-0.331902	0.470915	0.22036	0.296303	-0.0363218	-0.470755	0.0999643	-0.0775707	-0.344669	-0.0535761	-0.409787	0.435099	2.01038	0.210605	-0.304106	-0.143134	1.15206	1.84954
0.12	0.27759	-0.0296646	0.141526	-0.127417	1.06069	-0.172881	0.0243602	0.104541	-0.13268	-0.0172547	-0.108167	0.0269377	-0.0144757	-0.478723	-0.174322	-0.321847	0.527141	0.167072	0.255839	-0.036283	-0.466367	0.106705	-0.0722766	-0.342946	-0.0539197	-0.407418	0.436838	2.0141	0.198133	-0.300747	-0.146546	1.1656	1.8468
0.13	0.274967	-0.0389093	0.142505	-0.11113	1.06243	-0.172105	0.0184644	0.114843	-0.14043	-0.0069857	-0.118757	0.0231537	-0.0145474	-0.452635	-0.194022	-0.310888	0.586942	0.110039	0.213361	-0.0362441	-0.462321	0.114183	-0.0657691	-0.340185	-0.0549447	-0.40443	0.440031	2.01766	0.185314	-0.296384	-0.149198	1.17748	1.84316
0.14	0.272363	-0.0490231	0.143605	-0.0952482	1.06389	-0.171343	0.0138964	0.125213	-0.153086	0.00594397	-0.122632	0.0267074	-0.0146191	-0.422777	-0.214677	-0.298983	0.649461	0.0517774	0.170112	-0.0362052	-0.45868	0.122439	-0.0581192	-0.336285	-0.0567125	-0.400794	0.444634	2.02089	0.172385	-0.29113	-0.151036	1.18763	1.83876
0.15	0.269748	-0.05988	0.14486	-0.0797858	1.06512	-0.170597	0.0105239	0.135723	-0.169598	0.0210497	-0.120053	0.0367549	-0.0146908	-0.38941	-0.235836	-0.285943	0.713604	-0.0046499	0.127408	-0.0361663	-0.455485	0.131346	-0.0494857	-0.331124	-0.0592618	-0.396483	0.450504	2.02365	0.159541	-0.285109	-0.152061	1.19595	1.83379
0.16	0.267121	-0.0711711	0.146302	-0.0647374	1.06618	-0.169877	0.00798553	0.146302	-0.188564	0.0375278	-0.111827	0.0518528	-0.0147626	-0.352962	-0.256776	-0.271505	0.778099	-0.0559384	0.0865791	-0.0361273	-0.452789	0.14059	-0.0401069	-0.324589	-0.0625997	-0.391475	0.457426	2.0258	0.146928	-0.278455	-0.15231	1.20232	1.82851
0.17	0.264539	-0.082424	0.147952	-0.0500796	1.06711	-0.169192	0.00570979	0.156738	-0.208411	0.0543583	-0.0991554	0.070201	-0.0148343	-0.314036	-0.27658	-0.25544	0.841567	-0.0989555	0.0489012	-0.0360884	-0.450681	0.149699	-0.030273	-0.316593	-0.0666939	-0.38577	0.465156	2.02724	0.134644	-0.271308	-0.151842	1.20658	1.8232
0.18	0.262117	-0.0930685	0.149805	-0.0357754	1.06799	-0.168553	0.00300146	0.166715	-0.227586	0.0704528	-0.0834541	0.0899056	-0.014906	-0.273372	-0.294269	-0.237678	0.902617	-0.131176	0.0155125	-0.0360494	-0.449279	0.158095	-0.0202769	-0.307089	-0.0714706	-0.379409	0.473449	2.02794	0.122736	-0.263822	-0.150711	1.2086	1.81814
